<svg version="1.1" viewBox="0.0 0.0 667.0 407.0" fill="none" stroke="none" stroke-linecap="square" stroke-miterlimit="10" width="667" height="407" xmlns:xlink="http://www.w3.org/1999/xlink" xmlns="http://www.w3.org/2000/svg"><path fill="#ffffff" d="M0 0L667.0 0L667.0 407.0L0 407.0L0 0Z" fill-rule="nonzero"/><path stroke="#333333" stroke-width="1.0" stroke-linecap="butt" d="M103.5 47.5L103.5 366.5" fill-rule="nonzero"/><path stroke="#cccccc" stroke-width="1.0" stroke-linecap="butt" d="M239.5 47.5L239.5 366.5" fill-rule="nonzero"/><path stroke="#cccccc" stroke-width="1.0" stroke-linecap="butt" d="M375.5 47.5L375.5 366.5" fill-rule="nonzero"/><path stroke="#cccccc" stroke-width="1.0" stroke-linecap="butt" d="M510.5 47.5L510.5 366.5" fill-rule="nonzero"/><path stroke="#cccccc" stroke-width="1.0" stroke-linecap="butt" d="M646.5 47.5L646.5 366.5" fill-rule="nonzero"/><clipPath id="id_0"><path d="M103.35 47.916668L646.65 47.916668L646.65 366.65L103.35 366.65L103.35 47.916668Z" clip-rule="nonzero"/></clipPath><path stroke="#000000" stroke-width="2.0" stroke-linecap="butt" stroke-opacity="0.0" clip-path="url(#id_0)" d="M103.0 111.0L103.0 82.0L142.0 82.0C143.10457 82.0 144.0 82.89543 144.0 84.0L144.0 109.0C144.0 110.10457 143.10457 111.0 142.0 111.0Z" fill-rule="nonzero"/><path fill="#4285f4" clip-path="url(#id_0)" d="M103.0 111.0L103.0 82.0L142.0 82.0C143.10457 82.0 144.0 82.89543 144.0 84.0L144.0 109.0C144.0 110.10457 143.10457 111.0 142.0 111.0Z" fill-rule="nonzero"/><path stroke="#000000" stroke-width="2.0" stroke-linecap="butt" stroke-opacity="0.0" clip-path="url(#id_0)" d="M103.0 206.0L103.0 177.0L122.0 177.0C123.10457 177.0 124.0 177.89543 124.0 179.0L124.0 204.0C124.0 205.10457 123.10457 206.0 122.0 206.0Z" fill-rule="nonzero"/><path fill="#4285f4" clip-path="url(#id_0)" d="M103.0 206.0L103.0 177.0L122.0 177.0C123.10457 177.0 124.0 177.89543 124.0 179.0L124.0 204.0C124.0 205.10457 123.10457 206.0 122.0 206.0Z" fill-rule="nonzero"/><path stroke="#000000" stroke-width="2.0" stroke-linecap="butt" stroke-opacity="0.0" clip-path="url(#id_0)" d="M103.0 301.0L103.0 272.0L251.0 272.0C252.10457 272.0 253.0 272.89542 253.0 274.0L253.0 299.0C253.0 300.10458 252.10457 301.0 251.0 301.0Z" fill-rule="nonzero"/><path fill="#4285f4" clip-path="url(#id_0)" d="M103.0 301.0L103.0 272.0L251.0 272.0C252.10457 272.0 253.0 272.89542 253.0 274.0L253.0 299.0C253.0 300.10458 252.10457 301.0 251.0 301.0Z" fill-rule="nonzero"/><path stroke="#000000" stroke-width="2.0" stroke-linecap="butt" stroke-opacity="0.0" clip-path="url(#id_0)" d="M103.0 142.0L103.0 113.0L495.0 113.0C496.10458 113.0 497.0 113.89543 497.0 115.0L497.0 140.0C497.0 141.10457 496.10458 142.0 495.0 142.0Z" fill-rule="nonzero"/><path fill="#ea4335" clip-path="url(#id_0)" d="M103.0 142.0L103.0 113.0L495.0 113.0C496.10458 113.0 497.0 113.89543 497.0 115.0L497.0 140.0C497.0 141.10457 496.10458 142.0 495.0 142.0Z" fill-rule="nonzero"/><path stroke="#000000" stroke-width="2.0" stroke-linecap="butt" stroke-opacity="0.0" clip-path="url(#id_0)" d="M103.0 237.0L103.0 208.0L271.0 208.0C272.10458 208.0 273.0 208.89543 273.0 210.0L273.0 235.0C273.0 236.10457 272.10458 237.0 271.0 237.0Z" fill-rule="nonzero"/><path fill="#ea4335" clip-path="url(#id_0)" d="M103.0 237.0L103.0 208.0L271.0 208.0C272.10458 208.0 273.0 208.89543 273.0 210.0L273.0 235.0C273.0 236.10457 272.10458 237.0 271.0 237.0Z" fill-rule="nonzero"/><path stroke="#000000" stroke-width="2.0" stroke-linecap="butt" stroke-opacity="0.0" clip-path="url(#id_0)" d="M103.0 332.0L103.0 303.0L645.0 303.0C646.10455 303.0 647.0 303.89542 647.0 305.0L647.0 330.0C647.0 331.10458 646.10455 332.0 645.0 332.0Z" fill-rule="nonzero"/><path fill="#ea4335" clip-path="url(#id_0)" d="M103.0 332.0L103.0 303.0L645.0 303.0C646.10455 303.0 647.0 303.89542 647.0 305.0L647.0 330.0C647.0 331.10458 646.10455 332.0 645.0 332.0Z" fill-rule="nonzero"/><path fill="#000000" d="M37.75625 113.62343L39.271873 113.99843Q38.803123 115.87343 37.553123 116.8578Q36.31875 117.84218 34.5375 117.84218Q32.678123 117.84218 31.521875 117.09218Q30.365625 116.32655 29.75625 114.90468Q29.146875 113.46718 29.146875 111.82655Q29.146875 110.02968 29.834375 108.70155Q30.521875 107.37343 31.771875 106.68593Q33.0375 105.9828 34.553123 105.9828Q36.271873 105.9828 37.44375 106.8578Q38.615623 107.7328 39.084373 109.32655L37.584373 109.6703Q37.19375 108.4203 36.428123 107.8578Q35.678123 107.27968 34.521873 107.27968Q33.209373 107.27968 32.31875 107.9203Q31.428125 108.5453 31.06875 109.62343Q30.709375 110.68593 30.709375 111.81093Q30.709375 113.27968 31.13125 114.37343Q31.56875 115.45155 32.459373 115.99843Q33.365623 116.52968 34.4125 116.52968Q35.678123 116.52968 36.553123 115.7953Q37.44375 115.06093 37.75625 113.62343ZM40.88125 113.4828Q40.88125 111.18593 42.1625 110.07655Q43.240623 109.15468 44.771873 109.15468Q46.490623 109.15468 47.56875 110.27968Q48.6625 111.38905 48.6625 113.37343Q48.6625 114.96718 48.178123 115.88905Q47.69375 116.81093 46.771873 117.32655Q45.865623 117.82655 44.771873 117.82655Q43.0375 117.82655 41.959373 116.71718Q40.88125 115.59218 40.88125 113.4828ZM42.334373 113.4828Q42.334373 115.07655 43.021873 115.87343Q43.725 116.6703 44.771873 116.6703Q45.81875 116.6703 46.50625 115.87343Q47.209373 115.07655 47.209373 113.43593Q47.209373 111.90468 46.50625 111.1078Q45.81875 110.31093 44.771873 110.31093Q43.725 110.31093 43.021873 111.1078Q42.334373 111.88905 42.334373 113.4828ZM50.38125 117.63905L50.38125 106.18593L51.7875 106.18593L51.7875 117.63905L50.38125 117.63905ZM58.7875 117.63905L58.7875 116.59218Q58.00625 117.82655 56.475 117.82655Q55.475 117.82655 54.646873 117.27968Q53.81875 116.7328 53.35 115.74843Q52.896873 114.76405 52.896873 113.49843Q52.896873 112.24843 53.303123 111.24843Q53.725 110.2328 54.553123 109.70155Q55.38125 109.15468 56.4125 109.15468Q57.1625 109.15468 57.740623 109.46718Q58.334373 109.77968 58.69375 110.2953L58.69375 106.18593L60.1 106.18593L60.1 117.63905L58.7875 117.63905ZM54.35 113.49843Q54.35 115.09218 55.021873 115.88905Q55.69375 116.6703 56.6 116.6703Q57.521873 116.6703 58.1625 115.9203Q58.81875 115.15468 58.81875 113.6078Q58.81875 111.90468 58.1625 111.1078Q57.50625 110.31093 56.5375 110.31093Q55.6 110.31093 54.975 111.07655Q54.35 111.84218 54.35 113.49843ZM65.85 115.15468L67.24062 114.93593Q67.35 115.77968 67.88125 116.2328Q68.42812 116.6703 69.38125 116.6703Q70.35 116.6703 70.81875 116.27968Q71.2875 115.87343 71.2875 115.34218Q71.2875 114.87343 70.88125 114.59218Q70.58437 114.40468 69.44375 114.12343Q67.89687 113.7328 67.2875 113.45155Q66.69375 113.15468 66.38125 112.65468Q66.08437 112.15468 66.08437 111.5453Q66.08437 110.9828 66.33437 110.51405Q66.58437 110.0453 67.02187 109.7328Q67.35 109.4828 67.9125 109.32655Q68.49062 109.15468 69.13125 109.15468Q70.11562 109.15468 70.85 109.43593Q71.58437 109.71718 71.92812 110.20155Q72.2875 110.6703 72.42812 111.4828L71.05312 111.6703Q70.95937 111.02968 70.50625 110.6703Q70.05312 110.31093 69.24062 110.31093Q68.27187 110.31093 67.85 110.63905Q67.44375 110.95155 67.44375 111.37343Q67.44375 111.65468 67.61562 111.87343Q67.7875 112.09218 68.14687 112.24843Q68.36562 112.32655 69.39687 112.6078Q70.88125 112.99843 71.475 113.26405Q72.06875 113.51405 72.39687 113.99843Q72.74062 114.4828 72.74062 115.20155Q72.74062 115.90468 72.31875 116.52968Q71.9125 117.13905 71.13125 117.4828Q70.36562 117.82655 69.39687 117.82655Q67.77187 117.82655 66.92812 117.15468Q66.08437 116.4828 65.85 115.15468ZM77.475 116.37343L77.67812 117.62343Q77.08437 117.74843 76.61562 117.74843Q75.85 117.74843 75.42812 117.51405Q75.00625 117.26405 74.83437 116.87343Q74.6625 116.46718 74.6625 115.20155L74.6625 110.43593L73.63125 110.43593L73.63125 109.34218L74.6625 109.34218L74.6625 107.27968L76.06875 106.43593L76.06875 109.34218L77.475 109.34218L77.475 110.43593L76.06875 110.43593L76.06875 115.27968Q76.06875 115.88905 76.13125 116.06093Q76.20937 116.2328 76.38125 116.34218Q76.55312 116.43593 76.86562 116.43593Q77.1 116.43593 77.475 116.37343ZM83.81875 116.6078Q83.0375 117.27968 82.31875 117.56093Q81.6 117.82655 80.77187 117.82655Q79.39687 117.82655 78.6625 117.15468Q77.92812 116.4828 77.92812 115.45155Q77.92812 114.84218 78.20937 114.34218Q78.49062 113.82655 78.92812 113.52968Q79.38125 113.21718 79.94375 113.06093Q80.36562 112.95155 81.19375 112.8578Q82.89687 112.65468 83.70937 112.37343Q83.70937 112.07655 83.70937 111.99843Q83.70937 111.13905 83.31875 110.7953Q82.77187 110.31093 81.70937 110.31093Q80.725 110.31093 80.24062 110.6703Q79.77187 111.01405 79.55312 111.88905L78.17812 111.70155Q78.36562 110.82655 78.7875 110.27968Q79.225 109.7328 80.0375 109.45155Q80.85 109.15468 81.9125 109.15468Q82.975 109.15468 83.63125 109.40468Q84.30312 109.65468 84.61562 110.02968Q84.92812 110.40468 85.05312 110.9828Q85.13125 111.34218 85.13125 112.27968L85.13125 114.15468Q85.13125 116.12343 85.20937 116.63905Q85.30312 117.15468 85.56875 117.63905L84.1 117.63905Q83.88125 117.20155 83.81875 116.6078ZM83.70937 113.46718Q82.94375 113.77968 81.4125 113.99843Q80.5375 114.12343 80.17812 114.27968Q79.81875 114.43593 79.61562 114.74843Q79.42812 115.0453 79.42812 115.40468Q79.42812 115.96718 79.85 116.34218Q80.2875 116.71718 81.1 116.71718Q81.9125 116.71718 82.5375 116.37343Q83.17812 116.01405 83.475 115.38905Q83.70937 114.9203 83.70937 113.9828L83.70937 113.46718ZM87.39687 117.63905L87.39687 109.34218L88.6625 109.34218L88.6625 110.59218Q89.14687 109.71718 89.55312 109.43593Q89.95937 109.15468 90.45937 109.15468Q91.1625 109.15468 91.89687 109.6078L91.4125 110.90468Q90.89687 110.6078 90.38125 110.6078Q89.92812 110.6078 89.55312 110.88905Q89.19375 111.15468 89.0375 111.65468Q88.80312 112.40468 88.80312 113.2953L88.80312 117.63905L87.39687 117.63905ZM95.475 116.37343L95.67812 117.62343Q95.08437 117.74843 94.61562 117.74843Q93.85 117.74843 93.42812 117.51405Q93.00625 117.26405 92.83437 116.87343Q92.6625 116.46718 92.6625 115.20155L92.6625 110.43593L91.63125 110.43593L91.63125 109.34218L92.6625 109.34218L92.6625 107.27968L94.06875 106.43593L94.06875 109.34218L95.475 109.34218L95.475 110.43593L94.06875 110.43593L94.06875 115.27968Q94.06875 115.88905 94.13125 116.06093Q94.20937 116.2328 94.38125 116.34218Q94.55312 116.43593 94.86562 116.43593Q95.1 116.43593 95.475 116.37343Z" fill-rule="nonzero"/><path fill="#000000" d="M38.63125 212.78334L38.63125 201.33022L40.146873 201.33022L40.146873 206.03334L46.1 206.03334L46.1 201.33022L47.615623 201.33022L47.615623 212.78334L46.1 212.78334L46.1 207.37709L40.146873 207.37709L40.146873 212.78334L38.63125 212.78334ZM48.88125 208.62709Q48.88125 206.33022 50.1625 205.22084Q51.240623 204.29897 52.771873 204.29897Q54.490623 204.29897 55.56875 205.42397Q56.6625 206.53334 56.6625 208.51772Q56.6625 210.11147 56.178123 211.03334Q55.69375 211.95522 54.771873 212.47084Q53.865623 212.97084 52.771873 212.97084Q51.0375 212.97084 49.959373 211.86147Q48.88125 210.73647 48.88125 208.62709ZM50.334373 208.62709Q50.334373 210.22084 51.021873 211.01772Q51.725 211.81459 52.771873 211.81459Q53.81875 211.81459 54.50625 211.01772Q55.209373 210.22084 55.209373 208.58022Q55.209373 207.04897 54.50625 206.25209Q53.81875 205.45522 52.771873 205.45522Q51.725 205.45522 51.021873 206.25209Q50.334373 207.03334 50.334373 208.62709ZM61.475 211.51772L61.678123 212.76772Q61.084373 212.89272 60.615623 212.89272Q59.85 212.89272 59.428123 212.65834Q59.00625 212.40834 58.834373 212.01772Q58.6625 211.61147 58.6625 210.34584L58.6625 205.58022L57.63125 205.58022L57.63125 204.48647L58.6625 204.48647L58.6625 202.42397L60.06875 201.58022L60.06875 204.48647L61.475 204.48647L61.475 205.58022L60.06875 205.58022L60.06875 210.42397Q60.06875 211.03334 60.13125 211.20522Q60.209373 211.37709 60.38125 211.48647Q60.553123 211.58022 60.865623 211.58022Q61.1 211.58022 61.475 211.51772ZM65.85 210.29897L67.24062 210.08022Q67.35 210.92397 67.88125 211.37709Q68.42812 211.81459 69.38125 211.81459Q70.35 211.81459 70.81875 211.42397Q71.2875 211.01772 71.2875 210.48647Q71.2875 210.01772 70.88125 209.73647Q70.58437 209.54897 69.44375 209.26772Q67.89687 208.87709 67.2875 208.59584Q66.69375 208.29897 66.38125 207.79897Q66.08437 207.29897 66.08437 206.68959Q66.08437 206.12709 66.33437 205.65834Q66.58437 205.18959 67.02187 204.87709Q67.35 204.62709 67.9125 204.47084Q68.49062 204.29897 69.13125 204.29897Q70.11562 204.29897 70.85 204.58022Q71.58437 204.86147 71.92812 205.34584Q72.2875 205.81459 72.42812 206.62709L71.05312 206.81459Q70.95937 206.17397 70.50625 205.81459Q70.05312 205.45522 69.24062 205.45522Q68.27187 205.45522 67.85 205.78334Q67.44375 206.09584 67.44375 206.51772Q67.44375 206.79897 67.61562 207.01772Q67.7875 207.23647 68.14687 207.39272Q68.36562 207.47084 69.39687 207.75209Q70.88125 208.14272 71.475 208.40834Q72.06875 208.65834 72.39687 209.14272Q72.74062 209.62709 72.74062 210.34584Q72.74062 211.04897 72.31875 211.67397Q71.9125 212.28334 71.13125 212.62709Q70.36562 212.97084 69.39687 212.97084Q67.77187 212.97084 66.92812 212.29897Q66.08437 211.62709 65.85 210.29897ZM77.475 211.51772L77.67812 212.76772Q77.08437 212.89272 76.61562 212.89272Q75.85 212.89272 75.42812 212.65834Q75.00625 212.40834 74.83437 212.01772Q74.6625 211.61147 74.6625 210.34584L74.6625 205.58022L73.63125 205.58022L73.63125 204.48647L74.6625 204.48647L74.6625 202.42397L76.06875 201.58022L76.06875 204.48647L77.475 204.48647L77.475 205.58022L76.06875 205.58022L76.06875 210.42397Q76.06875 211.03334 76.13125 211.20522Q76.20937 211.37709 76.38125 211.48647Q76.55312 211.58022 76.86562 211.58022Q77.1 211.58022 77.475 211.51772ZM83.81875 211.75209Q83.0375 212.42397 82.31875 212.70522Q81.6 212.97084 80.77187 212.97084Q79.39687 212.97084 78.6625 212.29897Q77.92812 211.62709 77.92812 210.59584Q77.92812 209.98647 78.20937 209.48647Q78.49062 208.97084 78.92812 208.67397Q79.38125 208.36147 79.94375 208.20522Q80.36562 208.09584 81.19375 208.00209Q82.89687 207.79897 83.70937 207.51772Q83.70937 207.22084 83.70937 207.14272Q83.70937 206.28334 83.31875 205.93959Q82.77187 205.45522 81.70937 205.45522Q80.725 205.45522 80.24062 205.81459Q79.77187 206.15834 79.55312 207.03334L78.17812 206.84584Q78.36562 205.97084 78.7875 205.42397Q79.225 204.87709 80.0375 204.59584Q80.85 204.29897 81.9125 204.29897Q82.975 204.29897 83.63125 204.54897Q84.30312 204.79897 84.61562 205.17397Q84.92812 205.54897 85.05312 206.12709Q85.13125 206.48647 85.13125 207.42397L85.13125 209.29897Q85.13125 211.26772 85.20937 211.78334Q85.30312 212.29897 85.56875 212.78334L84.1 212.78334Q83.88125 212.34584 83.81875 211.75209ZM83.70937 208.61147Q82.94375 208.92397 81.4125 209.14272Q80.5375 209.26772 80.17812 209.42397Q79.81875 209.58022 79.61562 209.89272Q79.42812 210.18959 79.42812 210.54897Q79.42812 211.11147 79.85 211.48647Q80.2875 211.86147 81.1 211.86147Q81.9125 211.86147 82.5375 211.51772Q83.17812 211.15834 83.475 210.53334Q83.70937 210.06459 83.70937 209.12709L83.70937 208.61147ZM87.39687 212.78334L87.39687 204.48647L88.6625 204.48647L88.6625 205.73647Q89.14687 204.86147 89.55312 204.58022Q89.95937 204.29897 90.45937 204.29897Q91.1625 204.29897 91.89687 204.75209L91.4125 206.04897Q90.89687 205.75209 90.38125 205.75209Q89.92812 205.75209 89.55312 206.03334Q89.19375 206.29897 89.0375 206.79897Q88.80312 207.54897 88.80312 208.43959L88.80312 212.78334L87.39687 212.78334ZM95.475 211.51772L95.67812 212.76772Q95.08437 212.89272 94.61562 212.89272Q93.85 212.89272 93.42812 212.65834Q93.00625 212.40834 92.83437 212.01772Q92.6625 211.61147 92.6625 210.34584L92.6625 205.58022L91.63125 205.58022L91.63125 204.48647L92.6625 204.48647L92.6625 202.42397L94.06875 201.58022L94.06875 204.48647L95.475 204.48647L95.475 205.58022L94.06875 205.58022L94.06875 210.42397Q94.06875 211.03334 94.13125 211.20522Q94.20937 211.37709 94.38125 211.48647Q94.55312 211.58022 94.86562 211.58022Q95.1 211.58022 95.475 211.51772Z" fill-rule="nonzero"/><path fill="#000000" d="M21.584375 307.9276L21.584375 296.4745L25.9125 296.4745Q27.053125 296.4745 27.646875 296.58386Q28.490625 296.7245 29.053125 297.1151Q29.63125 297.50574 29.975 298.2245Q30.334375 298.9276 30.334375 299.787Q30.334375 301.2401 29.396875 302.25574Q28.475 303.27136 26.0375 303.27136L23.1 303.27136L23.1 307.9276L21.584375 307.9276ZM23.1 301.912L26.06875 301.912Q27.5375 301.912 28.146875 301.3651Q28.771875 300.81824 28.771875 299.83386Q28.771875 299.1151 28.396875 298.5995Q28.0375 298.08386 27.44375 297.9276Q27.06875 297.81824 26.0375 297.81824L23.1 297.81824L23.1 301.912ZM32.396873 307.9276L32.396873 299.63074L33.6625 299.63074L33.6625 300.88074Q34.146873 300.00574 34.553123 299.7245Q34.959373 299.44324 35.459373 299.44324Q36.1625 299.44324 36.896873 299.89636L36.4125 301.19324Q35.896873 300.89636 35.38125 300.89636Q34.928123 300.89636 34.553123 301.1776Q34.19375 301.44324 34.0375 301.94324Q33.803123 302.69324 33.803123 303.58386L33.803123 307.9276L32.396873 307.9276ZM36.88125 303.77136Q36.88125 301.4745 38.1625 300.3651Q39.240623 299.44324 40.771873 299.44324Q42.490623 299.44324 43.56875 300.56824Q44.6625 301.6776 44.6625 303.662Q44.6625 305.25574 44.178123 306.1776Q43.69375 307.0995 42.771873 307.6151Q41.865623 308.1151 40.771873 308.1151Q39.0375 308.1151 37.959373 307.00574Q36.88125 305.88074 36.88125 303.77136ZM38.334373 303.77136Q38.334373 305.3651 39.021873 306.162Q39.725 306.95886 40.771873 306.95886Q41.81875 306.95886 42.50625 306.162Q43.209373 305.3651 43.209373 303.7245Q43.209373 302.19324 42.50625 301.39636Q41.81875 300.5995 40.771873 300.5995Q39.725 300.5995 39.021873 301.39636Q38.334373 302.1776 38.334373 303.77136ZM51.7875 307.9276L51.7875 306.88074Q51.00625 308.1151 49.475 308.1151Q48.475 308.1151 47.646873 307.56824Q46.81875 307.02136 46.35 306.037Q45.896873 305.0526 45.896873 303.787Q45.896873 302.537 46.303123 301.537Q46.725 300.52136 47.553123 299.9901Q48.38125 299.44324 49.4125 299.44324Q50.1625 299.44324 50.740623 299.75574Q51.334373 300.06824 51.69375 300.58386L51.69375 296.4745L53.1 296.4745L53.1 307.9276L51.7875 307.9276ZM47.35 303.787Q47.35 305.38074 48.021873 306.1776Q48.69375 306.95886 49.6 306.95886Q50.521873 306.95886 51.1625 306.20886Q51.81875 305.44324 51.81875 303.89636Q51.81875 302.19324 51.1625 301.39636Q50.50625 300.5995 49.5375 300.5995Q48.6 300.5995 47.975 301.3651Q47.35 302.13074 47.35 303.787ZM60.85 307.9276L60.85 306.70886Q59.88125 308.1151 58.209373 308.1151Q57.475 308.1151 56.834373 307.83386Q56.209373 307.5526 55.896873 307.13074Q55.584373 306.69324 55.459373 306.08386Q55.38125 305.662 55.38125 304.77136L55.38125 299.63074L56.7875 299.63074L56.7875 304.2245Q56.7875 305.33386 56.865623 305.70886Q57.00625 306.27136 57.428123 306.58386Q57.865623 306.89636 58.490623 306.89636Q59.13125 306.89636 59.678123 306.58386Q60.240623 306.25574 60.459373 305.69324Q60.69375 305.13074 60.69375 304.06824L60.69375 299.63074L62.1 299.63074L62.1 307.9276L60.85 307.9276ZM68.81875 304.88074L70.20937 305.06824Q69.975 306.4901 69.0375 307.3026Q68.11562 308.1151 66.75625 308.1151Q65.05312 308.1151 64.00625 307.00574Q62.975 305.88074 62.975 303.8026Q62.975 302.45886 63.4125 301.45886Q63.865623 300.44324 64.77187 299.94324Q65.69375 299.44324 66.75625 299.44324Q68.11562 299.44324 68.975 300.13074Q69.83437 300.8026 70.06875 302.06824L68.70937 302.27136Q68.50625 301.44324 68.00625 301.02136Q67.52187 300.5995 66.81875 300.5995Q65.75625 300.5995 65.08437 301.3651Q64.42812 302.1151 64.42812 303.77136Q64.42812 305.44324 65.06875 306.20886Q65.70937 306.95886 66.74062 306.95886Q67.56875 306.95886 68.11562 306.45886Q68.67812 305.94324 68.81875 304.88074ZM74.475 306.662L74.67812 307.912Q74.08437 308.037 73.61562 308.037Q72.85 308.037 72.42812 307.8026Q72.00625 307.5526 71.83437 307.162Q71.6625 306.75574 71.6625 305.4901L71.6625 300.7245L70.63125 300.7245L70.63125 299.63074L71.6625 299.63074L71.6625 297.56824L73.06875 296.7245L73.06875 299.63074L74.475 299.63074L74.475 300.7245L73.06875 300.7245L73.06875 305.56824Q73.06875 306.1776 73.13125 306.3495Q73.20937 306.52136 73.38125 306.63074Q73.55312 306.7245 73.86562 306.7245Q74.1 306.7245 74.475 306.662ZM75.4125 298.08386L75.4125 296.4745L76.81875 296.4745L76.81875 298.08386L75.4125 298.08386ZM75.4125 307.9276L75.4125 299.63074L76.81875 299.63074L76.81875 307.9276L75.4125 307.9276ZM78.88125 303.77136Q78.88125 301.4745 80.1625 300.3651Q81.24062 299.44324 82.77187 299.44324Q84.49062 299.44324 85.56875 300.56824Q86.6625 301.6776 86.6625 303.662Q86.6625 305.25574 86.17812 306.1776Q85.69375 307.0995 84.77187 307.6151Q83.86562 308.1151 82.77187 308.1151Q81.0375 308.1151 79.95937 307.00574Q78.88125 305.88074 78.88125 303.77136ZM80.33437 303.77136Q80.33437 305.3651 81.02187 306.162Q81.725 306.95886 82.77187 306.95886Q83.81875 306.95886 84.50625 306.162Q85.20937 305.3651 85.20937 303.7245Q85.20937 302.19324 84.50625 301.39636Q83.81875 300.5995 82.77187 300.5995Q81.725 300.5995 81.02187 301.39636Q80.33437 302.1776 80.33437 303.77136ZM88.4125 307.9276L88.4125 299.63074L89.67812 299.63074L89.67812 300.8026Q90.58437 299.44324 92.31875 299.44324Q93.06875 299.44324 93.69375 299.70886Q94.31875 299.9745 94.63125 300.412Q94.94375 300.8495 95.06875 301.45886Q95.14687 301.8495 95.14687 302.81824L95.14687 307.9276L93.74062 307.9276L93.74062 302.88074Q93.74062 302.02136 93.56875 301.5995Q93.4125 301.162 92.99062 300.912Q92.58437 300.662 92.02187 300.662Q91.11562 300.662 90.45937 301.2401Q89.81875 301.8026 89.81875 303.39636L89.81875 307.9276L88.4125 307.9276Z" fill-rule="nonzero"/><path fill="#000000" d="M100.35 379.41562Q100.35 377.88437 100.6625 376.9625Q100.975 376.025 101.58437 375.525Q102.20937 375.025 103.14687 375.025Q103.83437 375.025 104.35 375.30624Q104.88125 375.5875 105.225 376.11874Q105.56875 376.63437 105.75625 377.38437Q105.94375 378.13437 105.94375 379.41562Q105.94375 380.93124 105.63125 381.85312Q105.33437 382.775 104.70937 383.29062Q104.1 383.79062 103.14687 383.79062Q101.9125 383.79062 101.19375 382.9Q100.35 381.8375 100.35 379.41562ZM101.42812 379.41562Q101.42812 381.525 101.92812 382.22812Q102.42812 382.93124 103.14687 382.93124Q103.88125 382.93124 104.36562 382.22812Q104.86562 381.525 104.86562 379.41562Q104.86562 377.29062 104.36562 376.60312Q103.88125 375.9 103.13125 375.9Q102.4125 375.9 101.975 376.50937Q101.42812 377.29062 101.42812 379.41562Z" fill-rule="nonzero"/><path fill="#000000" d="M238.22188 382.63437L238.22188 383.65L232.53438 383.65Q232.53438 383.275 232.65938 382.91562Q232.87813 382.3375 233.34688 381.775Q233.83125 381.2125 234.7375 380.47812Q236.14375 379.32187 236.62813 378.65Q237.12813 377.97812 237.12813 377.38437Q237.12813 376.75937 236.675 376.3375Q236.22188 375.9 235.50313 375.9Q234.7375 375.9 234.28438 376.35312Q233.83125 376.80624 233.81563 377.61874L232.7375 377.50937Q232.84688 376.29062 233.56563 375.66562Q234.3 375.025 235.53438 375.025Q236.76875 375.025 237.4875 375.7125Q238.20625 376.4 238.20625 377.41562Q238.20625 377.93124 237.9875 378.43124Q237.78438 378.91562 237.28438 379.47812Q236.8 380.025 235.675 380.97812Q234.72188 381.775 234.44063 382.07187Q234.175 382.35312 234.00313 382.63437L238.22188 382.63437ZM239.675 379.41562Q239.675 377.88437 239.9875 376.9625Q240.3 376.025 240.90938 375.525Q241.53438 375.025 242.47188 375.025Q243.15938 375.025 243.675 375.30624Q244.20625 375.5875 244.55 376.11874Q244.89375 376.63437 245.08125 377.38437Q245.26875 378.13437 245.26875 379.41562Q245.26875 380.93124 244.95625 381.85312Q244.65938 382.775 244.03438 383.29062Q243.425 383.79062 242.47188 383.79062Q241.2375 383.79062 240.51875 382.9Q239.675 381.8375 239.675 379.41562ZM240.75313 379.41562Q240.75313 381.525 241.25313 382.22812Q241.75313 382.93124 242.47188 382.93124Q243.20625 382.93124 243.69063 382.22812Q244.19063 381.525 244.19063 379.41562Q244.19063 377.29062 243.69063 376.60312Q243.20625 375.9 242.45625 375.9Q241.7375 375.9 241.3 376.50937Q240.75313 377.29062 240.75313 379.41562Z" fill-rule="nonzero"/><path fill="#000000" d="M371.875 383.65L371.875 381.5875L368.15625 381.5875L368.15625 380.61874L372.07812 375.05624L372.9375 375.05624L372.9375 380.61874L374.09375 380.61874L374.09375 381.5875L372.9375 381.5875L372.9375 383.65L371.875 383.65ZM371.875 380.61874L371.875 376.75937L369.1875 380.61874L371.875 380.61874ZM375.5 379.41562Q375.5 377.88437 375.8125 376.9625Q376.125 376.025 376.73438 375.525Q377.35938 375.025 378.29688 375.025Q378.98438 375.025 379.5 375.30624Q380.03125 375.5875 380.375 376.11874Q380.71875 376.63437 380.90625 377.38437Q381.09375 378.13437 381.09375 379.41562Q381.09375 380.93124 380.78125 381.85312Q380.48438 382.775 379.85938 383.29062Q379.25 383.79062 378.29688 383.79062Q377.0625 383.79062 376.34375 382.9Q375.5 381.8375 375.5 379.41562ZM376.57812 379.41562Q376.57812 381.525 377.07812 382.22812Q377.57812 382.93124 378.29688 382.93124Q379.03125 382.93124 379.51562 382.22812Q380.01562 381.525 380.01562 379.41562Q380.01562 377.29062 379.51562 376.60312Q379.03125 375.9 378.28125 375.9Q377.5625 375.9 377.125 376.50937Q376.57812 377.29062 376.57812 379.41562Z" fill-rule="nonzero"/><path fill="#000000" d="M509.79376 377.16562L508.7469 377.24374Q508.60626 376.61874 508.35626 376.3375Q507.91876 375.88437 507.29376 375.88437Q506.79376 375.88437 506.40314 376.16562Q505.91876 376.54062 505.6219 377.24374Q505.34064 377.93124 505.325 379.2125Q505.7 378.63437 506.2469 378.35312Q506.8094 378.07187 507.41876 378.07187Q508.46564 378.07187 509.2 378.85312Q509.95 379.63437 509.95 380.85312Q509.95 381.66562 509.59064 382.36874Q509.2469 383.05624 508.6375 383.43124Q508.02814 383.79062 507.2625 383.79062Q505.9344 383.79062 505.10626 382.82187Q504.27814 381.85312 504.27814 379.63437Q504.27814 377.13437 505.2 376.00937Q505.9969 375.025 507.35626 375.025Q508.3719 375.025 509.0125 375.60312Q509.66876 376.16562 509.79376 377.16562ZM505.4969 380.86874Q505.4969 381.41562 505.71564 381.91562Q505.95 382.4 506.35626 382.66562Q506.77814 382.93124 507.2469 382.93124Q507.90314 382.93124 508.3875 382.4Q508.8719 381.85312 508.8719 380.93124Q508.8719 380.04062 508.3875 379.525Q507.91876 379.00937 507.2 379.00937Q506.48126 379.00937 505.98126 379.525Q505.4969 380.04062 505.4969 380.86874ZM511.325 379.41562Q511.325 377.88437 511.6375 376.9625Q511.95 376.025 512.5594 375.525Q513.1844 375.025 514.1219 375.025Q514.8094 375.025 515.325 375.30624Q515.85626 375.5875 516.2 376.11874Q516.54376 376.63437 516.73126 377.38437Q516.91876 378.13437 516.91876 379.41562Q516.91876 380.93124 516.60626 381.85312Q516.3094 382.775 515.6844 383.29062Q515.075 383.79062 514.1219 383.79062Q512.8875 383.79062 512.16876 382.9Q511.325 381.8375 511.325 379.41562ZM512.40314 379.41562Q512.40314 381.525 512.90314 382.22812Q513.40314 382.93124 514.1219 382.93124Q514.85626 382.93124 515.34064 382.22812Q515.84064 381.525 515.84064 379.41562Q515.84064 377.29062 515.34064 376.60312Q514.85626 375.9 514.10626 375.9Q513.3875 375.9 512.95 376.50937Q512.40314 377.29062 512.40314 379.41562Z" fill-rule="nonzero"/><path fill="#000000" d="M641.775 378.99374Q641.1188 378.74374 640.79065 378.30624Q640.47815 377.85312 640.47815 377.24374Q640.47815 376.30624 641.15 375.66562Q641.8375 375.025 642.9469 375.025Q644.0719 375.025 644.7594 375.68124Q645.4469 376.3375 645.4469 377.275Q645.4469 377.86874 645.1344 378.30624Q644.8219 378.74374 644.1813 378.99374Q644.97815 379.24374 645.3844 379.82187Q645.79065 380.4 645.79065 381.19687Q645.79065 382.29062 645.0094 383.04062Q644.2438 383.79062 642.9625 383.79062Q641.6969 383.79062 640.91565 383.04062Q640.1344 382.29062 640.1344 381.16562Q640.1344 380.32187 640.5563 379.75937Q640.9938 379.19687 641.775 378.99374ZM641.5563 377.19687Q641.5563 377.80624 641.9469 378.19687Q642.35315 378.5875 642.97815 378.5875Q643.5875 378.5875 643.97815 378.2125Q644.3688 377.82187 644.3688 377.25937Q644.3688 376.68124 643.9625 376.29062Q643.5563 375.88437 642.9625 375.88437Q642.35315 375.88437 641.9469 376.275Q641.5563 376.66562 641.5563 377.19687ZM641.22815 381.16562Q641.22815 381.61874 641.4313 382.04062Q641.65 382.4625 642.0719 382.69687Q642.4938 382.93124 642.97815 382.93124Q643.72815 382.93124 644.2125 382.44687Q644.7125 381.9625 644.7125 381.2125Q644.7125 380.44687 644.2125 379.94687Q643.7125 379.44687 642.9469 379.44687Q642.1969 379.44687 641.7125 379.94687Q641.22815 380.43124 641.22815 381.16562ZM647.15 379.41562Q647.15 377.88437 647.4625 376.9625Q647.775 376.025 648.3844 375.525Q649.0094 375.025 649.9469 375.025Q650.6344 375.025 651.15 375.30624Q651.6813 375.5875 652.025 376.11874Q652.3688 376.63437 652.5563 377.38437Q652.7438 378.13437 652.7438 379.41562Q652.7438 380.93124 652.4313 381.85312Q652.1344 382.775 651.5094 383.29062Q650.9 383.79062 649.9469 383.79062Q648.7125 383.79062 647.9938 382.9Q647.15 381.8375 647.15 379.41562ZM648.22815 379.41562Q648.22815 381.525 648.72815 382.22812Q649.22815 382.93124 649.9469 382.93124Q650.6813 382.93124 651.16565 382.22812Q651.66565 381.525 651.66565 379.41562Q651.66565 377.29062 651.16565 376.60312Q650.6813 375.9 649.9313 375.9Q649.2125 375.9 648.775 376.50937Q648.22815 377.29062 648.22815 379.41562Z" fill-rule="nonzero"/><path fill="#4285f4" d="M263.0 22.35C263.0 21.797716 263.44772 21.35 264.0 21.35L274.0 21.35C274.55228 21.35 275.0 21.797716 275.0 22.35L275.0 32.35C275.0 32.902287 274.55228 33.35 274.0 33.35L264.0 33.35C263.44772 33.35 263.0 32.902287 263.0 32.35Z" fill-rule="nonzero"/><path fill="#1a1a1a" d="M283.875 31.35L283.875 22.75625L285.01562 22.75625L285.01562 30.334375L289.25 30.334375L289.25 31.35L283.875 31.35ZM294.85938 30.584375Q294.26562 31.084375 293.71875 31.2875Q293.1875 31.490625 292.5625 31.490625Q291.53125 31.490625 290.98438 30.990625Q290.4375 30.490625 290.4375 29.709375Q290.4375 29.25625 290.64062 28.88125Q290.84375 28.490625 291.1875 28.271875Q291.53125 28.0375 291.95312 27.928125Q292.25 27.834375 292.89062 27.75625Q294.15625 27.615625 294.76562 27.396875Q294.76562 27.178125 294.76562 27.13125Q294.76562 26.475 294.46875 26.209375Q294.0625 25.865625 293.26562 25.865625Q292.53125 25.865625 292.17188 26.13125Q291.8125 26.38125 291.64062 27.0375L290.60938 26.896875Q290.75 26.240625 291.07812 25.834375Q291.40625 25.428125 292.01562 25.209375Q292.625 24.990625 293.42188 24.990625Q294.21875 24.990625 294.71875 25.178125Q295.21875 25.365625 295.45312 25.646875Q295.6875 25.928125 295.78125 26.365625Q295.82812 26.63125 295.82812 27.334375L295.82812 28.740625Q295.82812 30.209375 295.89062 30.6Q295.96875 30.990625 296.17188 31.35L295.0625 31.35Q294.90625 31.021875 294.85938 30.584375ZM294.76562 28.225Q294.1875 28.459375 293.04688 28.63125Q292.39062 28.725 292.125 28.85Q291.85938 28.959375 291.70312 29.178125Q291.5625 29.396875 291.5625 29.678125Q291.5625 30.1 291.875 30.38125Q292.20312 30.6625 292.8125 30.6625Q293.42188 30.6625 293.89062 30.396875Q294.375 30.13125 294.59375 29.6625Q294.76562 29.303125 294.76562 28.615625L294.76562 28.225ZM301.82812 31.35L301.82812 30.56875Q301.23438 31.490625 300.09375 31.490625Q299.34375 31.490625 298.71875 31.084375Q298.09375 30.6625 297.75 29.928125Q297.40625 29.19375 297.40625 28.240625Q297.40625 27.31875 297.71875 26.553125Q298.03125 25.7875 298.65625 25.396875Q299.28125 24.990625 300.04688 24.990625Q300.60938 24.990625 301.04688 25.225Q301.48438 25.459375 301.76562 25.834375L301.76562 22.75625L302.8125 22.75625L302.8125 31.35L301.82812 31.35ZM298.5 28.240625Q298.5 29.44375 299.0 30.0375Q299.5 30.615625 300.1875 30.615625Q300.875 30.615625 301.35938 30.053125Q301.84375 29.490625 301.84375 28.334375Q301.84375 27.053125 301.34375 26.459375Q300.85938 25.865625 300.14062 25.865625Q299.4375 25.865625 298.96875 26.44375Q298.5 27.00625 298.5 28.240625ZM304.76562 31.35L304.76562 22.75625L305.82812 22.75625L305.82812 31.35L304.76562 31.35ZM312.04688 29.35L313.14062 29.475Q312.89062 30.428125 312.1875 30.959375Q311.48438 31.490625 310.40625 31.490625Q309.04688 31.490625 308.23438 30.646875Q307.4375 29.803125 307.4375 28.2875Q307.4375 26.725 308.25 25.865625Q309.0625 24.990625 310.34375 24.990625Q311.59375 24.990625 312.375 25.834375Q313.17188 26.678125 313.17188 28.225Q313.17188 28.31875 313.17188 28.50625L308.53125 28.50625Q308.59375 29.5375 309.10938 30.084375Q309.625 30.615625 310.40625 30.615625Q310.98438 30.615625 311.39062 30.31875Q311.8125 30.00625 312.04688 29.35ZM308.59375 27.646875L312.0625 27.646875Q312.0 26.85 311.67188 26.459375Q311.15625 25.85 310.35938 25.85Q309.625 25.85 309.125 26.334375Q308.64062 26.81875 308.59375 27.646875Z" fill-rule="nonzero"/><path fill="#ea4335" d="M330.0 22.35C330.0 21.797716 330.44772 21.35 331.0 21.35L341.0 21.35C341.55228 21.35 342.0 21.797716 342.0 22.35L342.0 32.35C342.0 32.902287 341.55228 33.35 341.0 33.35L331.0 33.35C330.44772 33.35 330.0 32.902287 330.0 32.35Z" fill-rule="nonzero"/><path fill="#1a1a1a" d="M350.54688 28.584375L351.60938 28.490625Q351.6875 29.146875 351.96875 29.553125Q352.25 29.959375 352.82812 30.225Q353.42188 30.475 354.15625 30.475Q354.79688 30.475 355.29688 30.2875Q355.79688 30.084375 356.03125 29.75625Q356.28125 29.4125 356.28125 29.021875Q356.28125 28.615625 356.04688 28.31875Q355.8125 28.00625 355.28125 27.803125Q354.92188 27.6625 353.73438 27.38125Q352.5625 27.1 352.09375 26.85Q351.46875 26.521875 351.17188 26.053125Q350.875 25.56875 350.875 24.975Q350.875 24.334375 351.23438 23.771875Q351.60938 23.19375 352.3125 22.9125Q353.03125 22.615625 353.89062 22.615625Q354.84375 22.615625 355.57812 22.928125Q356.3125 23.225 356.70312 23.834375Q357.09375 24.428125 357.125 25.178125L356.03125 25.25625Q355.9375 24.44375 355.42188 24.0375Q354.92188 23.615625 353.9375 23.615625Q352.90625 23.615625 352.4375 23.990625Q351.96875 24.365625 351.96875 24.896875Q351.96875 25.365625 352.29688 25.6625Q352.625 25.959375 354.0 26.271875Q355.39062 26.584375 355.90625 26.81875Q356.65625 27.178125 357.01562 27.709375Q357.375 28.225 357.375 28.928125Q357.375 29.615625 356.98438 30.225Q356.59375 30.81875 355.85938 31.1625Q355.125 31.490625 354.20312 31.490625Q353.03125 31.490625 352.23438 31.1625Q351.45312 30.81875 351.0 30.13125Q350.5625 29.44375 350.54688 28.584375ZM361.09375 30.4125L361.25 31.334375Q360.79688 31.428125 360.45312 31.428125Q359.875 31.428125 359.5625 31.25625Q359.25 31.06875 359.10938 30.771875Q358.98438 30.475 358.98438 29.521875L358.98438 25.94375L358.21875 25.94375L358.21875 25.13125L358.98438 25.13125L358.98438 23.584375L360.03125 22.959375L360.03125 25.13125L361.09375 25.13125L361.09375 25.94375L360.03125 25.94375L360.03125 29.584375Q360.03125 30.0375 360.07812 30.1625Q360.14062 30.2875 360.26562 30.365625Q360.39062 30.44375 360.625 30.44375Q360.8125 30.44375 361.09375 30.4125ZM361.40625 28.240625Q361.40625 26.50625 362.35938 25.678125Q363.15625 24.990625 364.3125 24.990625Q365.59375 24.990625 366.40625 25.834375Q367.23438 26.6625 367.23438 28.146875Q367.23438 29.35 366.875 30.0375Q366.51562 30.725 365.8125 31.115625Q365.125 31.490625 364.3125 31.490625Q363.01562 31.490625 362.20312 30.6625Q361.40625 29.81875 361.40625 28.240625ZM362.48438 28.240625Q362.48438 29.428125 363.0 30.021875Q363.53125 30.615625 364.3125 30.615625Q365.10938 30.615625 365.625 30.021875Q366.14062 29.428125 366.14062 28.209375Q366.14062 27.053125 365.60938 26.459375Q365.09375 25.865625 364.3125 25.865625Q363.53125 25.865625 363.0 26.459375Q362.48438 27.0375 362.48438 28.240625ZM368.78125 31.35L368.78125 25.13125L369.73438 25.13125L369.73438 26.06875Q370.09375 25.4125 370.39062 25.209375Q370.70312 24.990625 371.07812 24.990625Q371.60938 24.990625 372.15625 25.31875L371.79688 26.303125Q371.40625 26.06875 371.03125 26.06875Q370.67188 26.06875 370.39062 26.2875Q370.125 26.490625 370.01562 26.865625Q369.82812 27.428125 369.82812 28.084375L369.82812 31.35L368.78125 31.35ZM372.75 33.740623L372.625 32.75625Q372.96875 32.85 373.23438 32.85Q373.57812 32.85 373.78125 32.725Q374.0 32.615623 374.14062 32.4125Q374.23438 32.240623 374.46875 31.615625Q374.48438 31.5375 374.5625 31.365625L372.1875 25.13125L373.32812 25.13125L374.625 28.725Q374.875 29.4125 375.07812 30.178125Q375.26562 29.44375 375.51562 28.75625L376.84375 25.13125L377.89062 25.13125L375.53125 31.459375Q375.14062 32.475 374.9375 32.865623Q374.65625 33.396873 374.28125 33.63125Q373.92188 33.88125 373.42188 33.88125Q373.125 33.88125 372.75 33.740623ZM378.76562 31.35L377.78125 31.35L377.78125 22.75625L378.84375 22.75625L378.84375 25.81875Q379.51562 24.990625 380.54688 24.990625Q381.125 24.990625 381.625 25.225Q382.14062 25.44375 382.46875 25.865625Q382.8125 26.2875 383.0 26.88125Q383.1875 27.475 383.1875 28.146875Q383.1875 29.740625 382.39062 30.615625Q381.59375 31.490625 380.5 31.490625Q379.39062 31.490625 378.76562 30.56875L378.76562 31.35ZM378.75 28.19375Q378.75 29.303125 379.0625 29.803125Q379.5625 30.615625 380.40625 30.615625Q381.09375 30.615625 381.59375 30.021875Q382.10938 29.428125 382.10938 28.225Q382.10938 27.00625 381.625 26.428125Q381.14062 25.85 380.45312 25.85Q379.76562 25.85 379.25 26.459375Q378.75 27.053125 378.75 28.19375ZM384.40625 28.240625Q384.40625 26.50625 385.35938 25.678125Q386.15625 24.990625 387.3125 24.990625Q388.59375 24.990625 389.40625 25.834375Q390.23438 26.6625 390.23438 28.146875Q390.23438 29.35 389.875 30.0375Q389.51562 30.725 388.8125 31.115625Q388.125 31.490625 387.3125 31.490625Q386.01562 31.490625 385.20312 30.6625Q384.40625 29.81875 384.40625 28.240625ZM385.48438 28.240625Q385.48438 29.428125 386.0 30.021875Q386.53125 30.615625 387.3125 30.615625Q388.10938 30.615625 388.625 30.021875Q389.14062 29.428125 389.14062 28.209375Q389.14062 27.053125 388.60938 26.459375Q388.09375 25.865625 387.3125 25.865625Q386.53125 25.865625 386.0 26.459375Q385.48438 27.0375 385.48438 28.240625ZM391.40625 28.240625Q391.40625 26.50625 392.35938 25.678125Q393.15625 24.990625 394.3125 24.990625Q395.59375 24.990625 396.40625 25.834375Q397.23438 26.6625 397.23438 28.146875Q397.23438 29.35 396.875 30.0375Q396.51562 30.725 395.8125 31.115625Q395.125 31.490625 394.3125 31.490625Q393.01562 31.490625 392.20312 30.6625Q391.40625 29.81875 391.40625 28.240625ZM392.48438 28.240625Q392.48438 29.428125 393.0 30.021875Q393.53125 30.615625 394.3125 30.615625Q395.10938 30.615625 395.625 30.021875Q396.14062 29.428125 396.14062 28.209375Q396.14062 27.053125 395.60938 26.459375Q395.09375 25.865625 394.3125 25.865625Q393.53125 25.865625 393.0 26.459375Q392.48438 27.0375 392.48438 28.240625ZM398.79688 31.35L398.79688 22.75625L399.85938 22.75625L399.85938 27.6625L402.34375 25.13125L403.71875 25.13125L401.32812 27.428125L403.95312 31.35L402.65625 31.35L400.59375 28.1625L399.85938 28.88125L399.85938 31.35L398.79688 31.35Z" fill-rule="nonzero"/></svg>