<svg width="24" height="24" viewBox="0 0 24 24" fill="none" xmlns="http://www.w3.org/2000/svg">
<path d="M20.9618 12.79C20.8045 14.4922 20.1657 16.1144 19.1201 17.4668C18.0744 18.8192 16.6653 19.8458 15.0575 20.4265C13.4497 21.0073 11.7098 21.1181 10.0413 20.7461C8.37283 20.3741 6.84481 19.5345 5.63604 18.3258C4.42727 17.117 3.58775 15.589 3.21572 13.9205C2.84369 12.252 2.95453 10.5121 3.53528 8.9043C4.11602 7.29651 5.14265 5.88737 6.49503 4.84175C7.84741 3.79614 9.46961 3.15731 11.1718 3C10.1752 4.34827 9.69566 6.00945 9.82035 7.68141C9.94503 9.35338 10.6657 10.9251 11.8512 12.1106C13.0368 13.2961 14.6084 14.0168 16.2804 14.1415C17.9524 14.2662 19.6135 13.7866 20.9618 12.79V12.79Z" stroke="black" stroke-width="2" stroke-linecap="round" stroke-linejoin="round"/>
</svg>
